<?xml version="1.0" encoding="UTF-8" standalone="no"?><!DOCTYPE svg PUBLIC "-//W3C//DTD SVG 1.1//EN" "http://www.w3.org/Graphics/SVG/1.1/DTD/svg11.dtd"><svg width="100%" height="100%" viewBox="0 0 500 500" version="1.1" xmlns="http://www.w3.org/2000/svg" xmlns:xlink="http://www.w3.org/1999/xlink" xml:space="preserve" xmlns:serif="http://www.serif.com/" style="fill-rule:evenodd;clip-rule:evenodd;stroke-linejoin:round;stroke-miterlimit:1;"><g><clipPath id="_clip1"><circle cx="250" cy="250" r="244.951"/></clipPath><g clip-path="url(#_clip1)"><rect x="0" y="0" width="500" height="500" style="fill:#6d01f7;"/></g><path d="M205.399,435.466c-1.741,-9.379 -58.773,-330.594 -60.552,-340.47c-0.397,-2.204 0.414,-4.377 2.022,-6.209c2.248,-2.561 6.075,-4.449 9.946,-4.745c4.802,-0.368 9.547,1.082 12.127,2.961c1.302,0.948 2.074,2.04 2.241,3.062c1.066,6.547 59.62,337.087 60.979,345.36c0.151,0.92 -0.201,1.605 -1,2.087c-0.51,0.308 -1.279,0.522 -2.253,0.626c-2.421,0.26 -6.305,-0.089 -10.06,-0.209c-4.46,-0.143 -8.744,0.005 -11.035,-0.537c-1.47,-0.348 -2.257,-1.07 -2.416,-1.925Z" style="fill:#fff;"/><circle cx="250" cy="250" r="227.514" style="fill:#fff;fill-opacity:0;stroke:#fff;stroke-width:12.5px;"/><path d="M208.426,228.92c-7.665,-25.936 -22.353,-115.647 -24.525,-129.059c-1.595,-9.85 77.81,7.193 105.974,5.5c48.564,-2.919 62.395,-18.113 64.448,-13.527c6.622,14.798 -18.715,57.885 -27.077,75.623c11.144,23.893 31.57,36.45 42.978,51.531c6.442,8.516 -28.777,13.262 -44.347,14.313c-19.94,1.346 -54.93,-0.989 -74.331,-3.696c-22.236,-3.102 -41.33,4.396 -43.12,-0.684Z" style="fill:#fff;"/></g></svg>